<svg xmlns="http://www.w3.org/2000/svg" xmlns:xlink="http://www.w3.org/1999/xlink" width="301" height="301"><style><![CDATA[.B{font-family:Bitstream Vera Sans}]]></style><path d="M300.017 150.533c0 82.567-66.933 149.5-149.5 149.5s-149.5-66.933-149.5-149.5 66.933-149.5 149.5-149.5 149.5 66.933 149.5 149.5z" fill="#e6e6e6"/><g stroke="#000"><g stroke-width=".5" stroke-linejoin="round"><use xlink:href="#B" fill="#e60000"/><g fill="#00c800"><use xlink:href="#B" x="-76.567" y="-70.788"/><use xlink:href="#B" x="66.213" y="-57.063"/><use xlink:href="#B" x="31.06" y="99.44"/></g><g fill="#4646ff"><use xlink:href="#B" x="105.219" y="14.207"/><use xlink:href="#B" x="-87.883" y="59.953"/></g></g><path d="M80.917 86.433l58.9 55.2m66.9-41.7l-49.6 40.2m-4.8 20.1l25 76.4" fill="none" stroke-dasharray="8, 8"/></g><text x="321.4" y="467.8" xml:space="preserve" font-size="14" class="B"><tspan x="55.669" y="62.933">esclave</tspan></text><text x="395" y="530" xml:space="preserve" font-size="14" class="B"><tspan x="129.317" y="125.133">maître</tspan></text><text x="293.8" y="597" xml:space="preserve" font-size="14" class="B"><tspan x="28.117" y="192.133">esclave "parked"</tspan></text><defs ><path id="B" d="M161.017 148.833a11.85 11.85 0 0 1-17.775 10.262 11.85 11.85 0 0 1 0-20.525 11.85 11.85 0 0 1 17.775 10.262z"/></defs></svg>